<?xml version="1.0" encoding="iso-8859-1"?>
<!-- Generator: Adobe Illustrator 19.0.0, SVG Export Plug-In . SVG Version: 6.00 Build 0)  -->
<svg version="1.1" id="Capa_1" xmlns="http://www.w3.org/2000/svg" xmlns:xlink="http://www.w3.org/1999/xlink" x="0px" y="0px"
	 viewBox="0 0 512 512" style="enable-background:new 0 0 512 512;" xml:space="preserve">
<g>
	<rect x="256" y="10" style="fill:#FF5A5A;" width="80" height="40"/>
	<path style="fill:#FFDAAE;" d="M345.999,169.997c-0.002-49.499-40.5-89.994-90.002-89.994c-49.5,0-89.996,40.495-89.998,89.994
		v21.998h180V169.997z"/>
	<polygon style="fill:#BF9A94;" points="345.999,191.995 165.999,191.995 135.999,191.995 135.999,236.998 175.997,236.998 
		215.995,236.998 255.997,236.998 295.995,236.998 335.993,236.998 375.999,236.998 375.999,191.995 	"/>
	<polygon style="fill:#FFDAAE;" points="335.993,236.998 295.995,236.998 255.997,236.998 215.995,236.998 175.997,236.998 
		135.999,236.998 95.999,236.998 95.999,281.997 10.001,281.997 10.001,502 135.999,502 135.999,362.002 215.995,335.338 
		255.999,322.004 295.995,335.338 375.999,362.002 375.999,502 501.999,502 501.999,281.997 415.999,281.997 415.999,236.998 
		375.999,236.998 	"/>
	<polygon style="fill:#FF5A5A;" points="295.995,335.338 255.999,322.004 215.995,335.338 215.995,425.336 255.999,412.002 
		295.995,425.336 	"/>
	<g>
		<polygon style="fill:#986E62;" points="295.995,425.336 255.999,412.002 255.999,502 316.001,502 316.001,432.001 		"/>
		<polygon style="fill:#986E62;" points="255.999,502 255.999,412.002 215.995,425.336 195.999,432.001 195.999,502 		"/>
	</g>
	<g>
		<polygon style="fill:#BF9A94;" points="195.999,432.001 215.995,425.336 215.995,335.338 135.999,362.002 135.999,502 
			195.999,502 		"/>
		<polygon style="fill:#BF9A94;" points="295.995,335.338 295.995,425.336 316.001,432.001 316.001,502 375.999,502 
			375.999,362.002 		"/>
	</g>
</g>
<g>
	<path style="fill:#000001;" d="M501.999,271.997h-76v-34.999c0-5.522-4.477-10-10-10h-30v-34.999c0-5.523-4.477-10-10-10h-20
		v-12.002c-0.002-51.762-39.541-94.461-90-99.495V60.003h69.998c5.523,0,10-4.478,10-10V10c0-5.522-4.477-10-10-10h-79.998
		c-5.523,0-10,4.478-10,10v40.003v20.498c-50.461,5.033-89.998,47.733-90,99.496v12.002h-20c-5.521,0-10,4.477-10,10v34.999h-30
		c-5.521,0-10,4.478-10,10v34.999H10.001c-5.524,0-10,4.478-10,10V502c0,5.522,4.477,10,10,10h491.998c5.522,0,10-4.478,10-10
		V281.997C511.999,276.475,507.521,271.997,501.999,271.997z M265.999,20h59.998v20.003h-59.998L265.999,20L265.999,20z
		 M175.999,169.997c0.002-44.108,35.889-79.994,80-79.994c44.109,0,79.998,35.886,80,79.994v12.002h-160V169.997z M145.999,201.999
		h220v24.999h-30.006l0,0H145.999V201.999z M255.999,332.545l29.996,9.998v68.916l-26.834-8.944
		c-0.025-0.009-0.051-0.014-0.076-0.023c-0.129-0.041-0.258-0.075-0.387-0.111c-0.166-0.046-0.332-0.09-0.498-0.128
		c-0.127-0.028-0.256-0.055-0.385-0.078c-0.189-0.035-0.379-0.063-0.568-0.087c-0.109-0.014-0.219-0.029-0.328-0.039
		c-0.613-0.057-1.229-0.057-1.84,0c-0.111,0.01-0.219,0.025-0.33,0.039c-0.189,0.024-0.379,0.052-0.566,0.087
		c-0.129,0.023-0.258,0.05-0.385,0.078c-0.168,0.038-0.334,0.082-0.498,0.128c-0.129,0.036-0.26,0.07-0.387,0.111
		c-0.025,0.009-0.051,0.014-0.076,0.023l-26.842,8.946v-68.915L255.999,332.545z M365.999,492h-39.998v-59.999
		c0-4.305-2.756-8.126-6.838-9.487l-13.168-4.389v-68.916l60.004,20.001L365.999,492L365.999,492z M205.999,439.209l12.963-4.321
		c0.008-0.002,0.016-0.005,0.023-0.007l27.014-9.005V492h-40V439.209z M265.999,425.876l26.914,8.971
		c0.053,0.018,0.102,0.036,0.154,0.052l12.934,4.311V492h-40.002L265.999,425.876L265.999,425.876z M205.995,418.128l-13.158,4.386
		c-4.084,1.361-6.838,5.183-6.838,9.487V492h-40V369.21l59.996-19.998V418.128z M491.999,492h-106V362.002
		c0-4.305-2.754-8.126-6.838-9.487l-120-39.998c-2.053-0.684-4.271-0.684-6.324,0l-39.814,13.271l-0.002,0.001l-80.184,26.727
		c-4.084,1.361-6.838,5.183-6.838,9.487V492H20.001V291.997h75.998c5.523,0,10-4.478,10-10v-34.999h19.998v34.999
		c0,5.522,4.479,10,10,10c5.523,0,10-4.478,10-10v-34.999h20v6.032c0,5.522,4.479,10,10,10c5.523,0,10-4.478,10-10v-6.032h19.998
		v34.999c0,5.522,4.479,10,10,10c5.523,0,10-4.478,10-10v-34.999h20.002v6.032c0,5.522,4.477,10,10,10c5.521,0,10-4.478,10-10
		v-6.032h19.998v34.999c0,5.522,4.477,10,10,10c5.522,0,10-4.478,10-10v-34.999h20v6.033c0.002,5.522,4.479,9.999,10,9.999h0.002
		c5.523-0.001,10-4.479,9.998-10.001v-6.031h19.998v34.999c0,5.522,4.479,10,10,10c5.523,0,10-4.478,10-10v-34.999h20.006v34.999
		c0,5.522,4.479,10,10,10h76V492z"/>
	<path style="fill:#000001;" d="M95.999,352.002c-5.521,0-10,4.477-10,10v107.092c0,5.522,4.479,10,10,10c5.523,0,10-4.478,10-10
		V362.002C105.999,356.479,101.522,352.002,95.999,352.002z"/>
	<path style="fill:#000001;" d="M405.997,362.002v107.092c0,5.522,4.479,10,10,10c5.523,0,10-4.478,10-10V362.002
		c0-5.523-4.477-10-10-10C410.476,352.002,405.997,356.479,405.997,362.002z"/>
	<path style="fill:#000001;" d="M335.993,271.761c-5.521,0-10,4.478-10,10v0.236c0,5.522,4.479,10,10,10c5.523,0,10-4.478,10-10
		v-0.236C345.993,276.238,341.517,271.761,335.993,271.761z"/>
	<path style="fill:#000001;" d="M175.995,271.761c-5.521,0-10,4.478-10,10v0.236c0,5.522,4.479,10,10,10c5.523,0,10-4.478,10-10
		v-0.236C185.995,276.238,181.518,271.761,175.995,271.761z"/>
	<path style="fill:#000001;" d="M255.995,271.761c-5.523,0-10,4.478-10,10v0.236c0,5.522,4.477,10,10,10c5.521,0,10-4.478,10-10
		v-0.236C265.995,276.238,261.517,271.761,255.995,271.761z"/>
	<path style="fill:#000001;" d="M52.999,352.002c-5.523,0-10,4.477-10,10l0.002,78.125c0,5.523,4.479,10,10,10
		c5.523,0,10-4.478,10-10l-0.002-78.125C62.999,356.479,58.522,352.002,52.999,352.002z"/>
	<path style="fill:#000001;" d="M52.997,458.858c-5.521,0-10,4.478-10,10v0.235c0,5.522,4.479,10,10,10c5.523,0,10-4.478,10-10
		v-0.235C62.997,463.336,58.521,458.858,52.997,458.858z"/>
	<path style="fill:#000001;" d="M458.999,450.127c5.523,0,10-4.478,10-10l-0.002-78.125c0-5.523-4.477-10-10-10s-10,4.477-10,10
		l0.002,78.125C448.999,445.65,453.478,450.127,458.999,450.127z"/>
	<path style="fill:#000001;" d="M458.997,479.094c5.523,0,10-4.478,10-10v-0.235c0-5.522-4.477-10-10-10c-5.521,0-10,4.478-10,10
		v0.235C448.997,474.616,453.476,479.094,458.997,479.094z"/>
</g>
<g>
</g>
<g>
</g>
<g>
</g>
<g>
</g>
<g>
</g>
<g>
</g>
<g>
</g>
<g>
</g>
<g>
</g>
<g>
</g>
<g>
</g>
<g>
</g>
<g>
</g>
<g>
</g>
<g>
</g>
</svg>
